<?xml version="1.0" encoding="UTF-8"?>
<svg xmlns="http://www.w3.org/2000/svg" xmlns:xlink="http://www.w3.org/1999/xlink" width="404.88pt" height="404.99999pt" viewBox="0 0 404.88 404.99999" version="1.2">
<defs>
<clipPath id="clip1">
  <path d="M 16 60.273438 L 389 60.273438 L 389 344.4375 L 16 344.4375 Z M 16 60.273438 "/>
</clipPath>
</defs>
<g id="surface1">
<path style=" stroke:none;fill-rule:nonzero;fill:rgb(100%,54.899597%,0%);fill-opacity:1;" d="M 288.578125 211.320312 C 266.59375 211.320312 248.648438 193.390625 248.648438 171.429688 C 248.648438 149.46875 266.59375 131.539062 288.578125 131.539062 C 310.5625 131.539062 328.507812 149.46875 328.507812 171.429688 C 328.507812 193.390625 310.5625 211.320312 288.578125 211.320312 Z M 288.578125 140.503906 C 271.527344 140.503906 257.621094 154.398438 257.621094 171.429688 C 257.621094 188.460938 271.527344 202.355469 288.578125 202.355469 C 305.625 202.355469 319.535156 188.460938 319.535156 171.429688 C 319.535156 154.398438 305.625 140.503906 288.578125 140.503906 Z M 288.578125 140.503906 "/>
<path style=" stroke:none;fill-rule:nonzero;fill:rgb(100%,54.899597%,0%);fill-opacity:1;" d="M 361.707031 268.242188 L 331.648438 214.457031 C 334.789062 213.5625 337.929688 212.21875 340.171875 209.078125 C 342.863281 205.046875 342.863281 200.113281 342.417969 195.632812 C 342.417969 192.945312 341.96875 190.703125 342.417969 188.910156 C 342.863281 187.566406 344.660156 185.324219 346.003906 183.53125 C 348.699219 179.945312 352.285156 176.359375 352.285156 170.980469 C 352.285156 165.601562 349.144531 162.015625 346.003906 158.429688 C 344.660156 156.640625 342.863281 154.847656 342.417969 153.054688 C 341.96875 151.261719 341.96875 149.019531 342.417969 146.328125 C 342.863281 141.847656 342.863281 136.917969 340.171875 132.882812 C 337.03125 128.851562 332.546875 127.503906 328.058594 126.609375 C 325.816406 126.160156 323.125 125.265625 321.777344 124.367188 C 320.433594 123.472656 319.085938 121.230469 317.738281 118.988281 C 315.496094 115.402344 312.804688 110.921875 307.871094 109.578125 C 303.382812 108.230469 298.898438 110.023438 294.859375 111.371094 C 292.617188 112.265625 289.921875 113.164062 288.128906 113.164062 C 286.335938 113.164062 284.089844 112.265625 281.398438 111.371094 C 277.359375 109.578125 272.875 107.785156 268.386719 109.578125 C 263.453125 110.921875 260.761719 115.402344 258.519531 118.988281 C 257.171875 121.230469 255.824219 123.023438 254.480469 124.367188 C 253.132812 125.265625 250.441406 126.160156 248.199219 126.609375 C 243.710938 127.503906 239.226562 128.851562 236.085938 132.882812 C 233.394531 136.917969 233.394531 141.847656 233.839844 146.328125 C 233.839844 149.019531 234.289062 151.261719 233.839844 153.054688 C 233.394531 154.398438 231.597656 156.640625 230.253906 158.429688 C 227.5625 162.015625 223.972656 165.601562 223.972656 170.980469 C 223.972656 175.910156 227.113281 179.945312 230.253906 183.53125 C 231.597656 185.324219 233.394531 187.117188 233.839844 188.910156 C 234.289062 190.703125 234.289062 192.945312 233.839844 195.632812 C 233.394531 200.113281 233.394531 205.046875 236.085938 209.078125 C 238.777344 212.664062 242.816406 214.007812 246.851562 214.90625 L 217.242188 268.242188 C 216.34375 269.589844 216.34375 271.378906 217.242188 272.726562 C 218.140625 274.070312 219.484375 274.964844 221.28125 274.964844 L 240.570312 273.621094 L 249.542969 290.652344 C 250.441406 292 251.789062 292.894531 253.582031 292.894531 C 255.378906 292.894531 256.722656 292 257.621094 290.652344 L 289.921875 233.730469 L 321.328125 290.207031 C 322.226562 291.550781 323.574219 292.445312 325.367188 292.445312 C 327.160156 292.445312 328.507812 291.550781 329.40625 290.207031 L 338.378906 273.171875 L 357.671875 274.519531 C 359.464844 274.519531 360.8125 273.621094 361.707031 272.277344 C 362.605469 271.378906 362.605469 269.589844 361.707031 268.242188 Z M 243.261719 196.082031 C 243.261719 192.945312 243.710938 189.359375 242.816406 186.21875 C 241.917969 183.082031 239.675781 180.394531 237.429688 178.152344 C 235.636719 175.910156 233.394531 173.222656 233.394531 171.429688 C 233.394531 169.636719 235.636719 166.949219 237.429688 164.707031 C 239.675781 162.015625 241.917969 159.777344 242.816406 156.640625 C 243.710938 153.5 243.710938 149.914062 243.261719 146.777344 C 243.261719 143.640625 242.816406 140.503906 243.710938 139.160156 C 244.609375 137.8125 247.75 136.917969 250.441406 136.46875 C 253.582031 135.574219 257.171875 134.675781 259.863281 132.882812 C 262.554688 131.089844 264.351562 127.953125 266.144531 125.265625 C 267.9375 122.574219 269.285156 119.886719 271.078125 119.4375 C 271.527344 119.4375 271.527344 119.4375 271.976562 119.4375 C 273.773438 119.4375 276.015625 120.332031 278.257812 121.230469 C 281.398438 122.574219 284.539062 123.917969 288.128906 123.917969 C 291.71875 123.917969 294.859375 122.574219 298 121.230469 C 300.691406 120.332031 303.382812 118.988281 305.175781 119.4375 C 306.972656 119.886719 308.316406 122.574219 310.113281 125.265625 C 311.90625 127.953125 313.703125 131.089844 316.394531 132.882812 C 319.085938 134.675781 322.675781 135.574219 325.816406 136.46875 C 328.957031 137.367188 331.648438 137.8125 332.546875 139.160156 C 333.441406 140.503906 333.441406 143.640625 332.996094 146.777344 C 332.996094 149.914062 332.546875 153.5 333.441406 156.640625 C 334.339844 159.777344 336.582031 162.464844 338.828125 164.707031 C 340.621094 166.949219 342.863281 169.636719 342.863281 171.429688 C 342.863281 173.222656 340.621094 175.910156 338.828125 178.152344 C 336.582031 180.84375 334.339844 183.082031 333.441406 186.21875 C 332.546875 189.359375 332.546875 192.945312 332.996094 196.082031 C 332.996094 199.21875 333.441406 202.355469 332.546875 203.699219 C 331.648438 205.046875 328.507812 205.941406 325.816406 206.390625 C 322.675781 207.285156 319.085938 208.183594 316.394531 209.976562 C 313.703125 211.769531 311.90625 214.90625 310.113281 217.59375 C 308.316406 220.285156 306.972656 222.972656 305.175781 223.421875 C 303.832031 223.871094 300.691406 222.527344 298 221.628906 C 295.757812 220.734375 293.0625 219.835938 290.820312 219.386719 C 289.921875 219.386719 289.027344 218.941406 288.128906 218.941406 C 284.539062 218.941406 281.398438 220.285156 278.257812 221.628906 C 275.566406 222.527344 272.875 223.871094 271.078125 223.421875 C 269.285156 222.972656 267.9375 220.285156 266.144531 217.59375 C 264.351562 214.90625 262.554688 211.769531 259.863281 209.976562 C 257.171875 208.183594 253.582031 207.285156 250.441406 206.390625 C 247.300781 205.492188 244.609375 205.046875 243.710938 203.699219 C 242.816406 202.355469 243.261719 199.21875 243.261719 196.082031 Z M 254.480469 279 L 247.75 266.898438 C 246.851562 265.554688 245.058594 264.65625 243.710938 264.65625 L 229.804688 265.105469 L 255.824219 218.042969 C 256.722656 218.941406 258.070312 220.734375 258.964844 222.527344 C 261.210938 226.113281 263.902344 230.59375 268.835938 231.9375 C 270.183594 232.386719 271.078125 232.386719 272.425781 232.386719 C 275.566406 232.386719 279.15625 231.042969 281.847656 229.695312 Z M 336.136719 264.210938 C 334.339844 264.210938 332.546875 265.105469 332.097656 266.449219 L 325.367188 278.550781 L 299.34375 231.488281 C 302.039062 232.386719 305.179688 232.835938 308.316406 231.9375 C 313.253906 230.59375 315.945312 226.113281 318.1875 222.527344 C 319.535156 220.285156 320.878906 218.492188 322.226562 217.148438 C 322.675781 216.699219 323.125 216.699219 323.574219 216.699219 L 350.492188 265.105469 Z M 336.136719 264.210938 "/>
<g clip-path="url(#clip1)" clip-rule="nonzero">
<path style=" stroke:none;fill-rule:nonzero;fill:rgb(100%,54.899597%,0%);fill-opacity:1;" d="M 369.335938 344.4375 L 35.535156 344.4375 C 24.769531 344.4375 16.246094 335.921875 16.246094 325.167969 L 16.246094 79.546875 C 16.246094 68.789062 24.769531 60.273438 35.535156 60.273438 L 369.335938 60.273438 C 380.101562 60.273438 388.628906 68.789062 388.628906 79.546875 L 388.628906 325.167969 C 388.628906 335.476562 379.65625 344.4375 369.335938 344.4375 Z M 35.535156 69.238281 C 29.703125 69.238281 25.21875 73.71875 25.21875 79.546875 L 25.21875 325.167969 C 25.21875 330.992188 29.703125 335.476562 35.535156 335.476562 L 369.335938 335.476562 C 375.167969 335.476562 379.65625 330.992188 379.65625 325.167969 L 379.65625 79.546875 C 379.65625 73.71875 375.167969 69.238281 369.335938 69.238281 Z M 35.535156 69.238281 "/>
</g>
<path style=" stroke:none;fill-rule:nonzero;fill:rgb(100%,54.899597%,0%);fill-opacity:1;" d="M 353.632812 325.613281 L 52.585938 325.613281 C 43.164062 325.613281 35.535156 317.996094 35.535156 308.582031 L 35.535156 96.128906 C 35.535156 86.71875 43.164062 79.097656 52.585938 79.097656 L 353.632812 79.097656 C 363.054688 79.097656 370.679688 86.71875 370.679688 96.128906 L 370.679688 308.582031 C 370.679688 317.996094 363.054688 325.613281 353.632812 325.613281 Z M 52.585938 83.582031 C 45.855469 83.582031 40.023438 89.40625 40.023438 96.128906 L 40.023438 308.582031 C 40.023438 315.304688 45.855469 321.132812 52.585938 321.132812 L 353.632812 321.132812 C 360.363281 321.132812 366.195312 315.304688 366.195312 308.582031 L 366.195312 96.128906 C 366.195312 89.40625 360.363281 83.582031 353.632812 83.582031 Z M 52.585938 83.582031 "/>
<path style=" stroke:none;fill-rule:nonzero;fill:rgb(100%,54.899597%,0%);fill-opacity:1;" d="M 213.652344 127.058594 L 68.289062 127.058594 C 65.597656 127.058594 63.800781 125.265625 63.800781 122.574219 C 63.800781 119.886719 65.597656 118.09375 68.289062 118.09375 L 213.203125 118.09375 C 215.894531 118.09375 217.691406 119.886719 217.691406 122.574219 C 217.691406 125.265625 215.894531 127.058594 213.652344 127.058594 Z M 213.652344 127.058594 "/>
<path style=" stroke:none;fill-rule:nonzero;fill:rgb(100%,54.899597%,0%);fill-opacity:1;" d="M 197.050781 239.109375 L 68.289062 239.109375 C 65.597656 239.109375 63.800781 237.316406 63.800781 234.628906 C 63.800781 231.9375 65.597656 230.144531 68.289062 230.144531 L 197.050781 230.144531 C 199.742188 230.144531 201.539062 231.9375 201.539062 234.628906 C 201.539062 237.316406 199.742188 239.109375 197.050781 239.109375 Z M 197.050781 239.109375 "/>
<path style=" stroke:none;fill-rule:nonzero;fill:rgb(100%,54.899597%,0%);fill-opacity:1;" d="M 197.050781 187.566406 L 68.289062 187.566406 C 65.597656 187.566406 63.800781 185.773438 63.800781 183.082031 C 63.800781 180.394531 65.597656 178.601562 68.289062 178.601562 L 197.050781 178.601562 C 199.742188 178.601562 201.539062 180.394531 201.539062 183.082031 C 201.539062 185.773438 199.742188 187.566406 197.050781 187.566406 Z M 197.050781 187.566406 "/>
<path style=" stroke:none;fill-rule:nonzero;fill:rgb(100%,54.899597%,0%);fill-opacity:1;" d="M 136.484375 273.171875 L 68.289062 273.171875 C 65.597656 273.171875 63.800781 271.378906 63.800781 268.691406 C 63.800781 266.003906 65.597656 264.210938 68.289062 264.210938 L 136.484375 264.210938 C 139.175781 264.210938 140.96875 266.003906 140.96875 268.691406 C 140.96875 271.378906 139.175781 273.171875 136.484375 273.171875 Z M 136.484375 273.171875 "/>
</g>
</svg>
