<?xml version="1.0" encoding="UTF-8"?>
<svg xmlns="http://www.w3.org/2000/svg" xmlns:xlink="http://www.w3.org/1999/xlink" width="404.88pt" height="404.99999pt" viewBox="0 0 404.88 404.99999" version="1.2">
<defs>
<clipPath id="clip1">
  <path d="M 50.011719 15 L 355.171875 15 L 355.171875 389.785156 L 50.011719 389.785156 Z M 50.011719 15 "/>
</clipPath>
</defs>
<g id="surface1">
<g clip-path="url(#clip1)" clip-rule="nonzero">
<path style=" stroke:none;fill-rule:nonzero;fill:rgb(100%,100%,100%);fill-opacity:1;" d="M 355.171875 174.078125 C 355.171875 101.441406 308.808594 37.886719 239.855469 16.507812 L 234.867188 15.042969 L 228.707031 29.394531 C 227.53125 32.027344 228.707031 35.25 231.347656 36.714844 C 218.730469 32.90625 205.230469 30.855469 191.441406 30.855469 C 113.390625 30.855469 50.011719 94.707031 50.011719 173.199219 C 50.011719 226.503906 79.355469 273.070312 122.488281 297.378906 C 120.433594 297.671875 118.671875 299.136719 118.085938 301.1875 L 111.921875 318.175781 L 116.324219 320.519531 C 135.691406 330.769531 156.523438 336.625 178.238281 338.382812 L 171.195312 366.207031 L 150.363281 366.207031 C 143.90625 366.207031 138.625 371.480469 138.625 377.921875 L 138.625 389.636719 L 254.820312 389.636719 L 254.820312 377.921875 C 254.820312 371.480469 249.539062 366.207031 243.082031 366.207031 L 222.25 366.207031 L 214.914062 337.210938 C 294.433594 325.496094 355.171875 256.960938 355.171875 174.078125 Z M 62.628906 189.890625 C 66.441406 197.507812 71.136719 205.707031 71.136719 205.707031 C 85.222656 222.695312 83.753906 214.496094 88.742188 215.667969 C 92.265625 216.835938 87.570312 227.382812 89.328125 230.894531 C 91.972656 236.753906 103.707031 244.367188 106.347656 249.933594 C 114.859375 268.386719 128.941406 284.199219 128.941406 284.199219 C 127.476562 262.527344 140.09375 256.375 140.09375 256.375 C 140.09375 256.375 144.199219 240.855469 141.558594 236.753906 C 138.332031 231.480469 123.074219 232.066406 119.550781 227.089844 C 113.097656 218.59375 100.1875 209.515625 92.558594 210.980469 C 84.636719 212.445312 84.34375 211.273438 82.582031 209.515625 C 66.738281 194.871094 73.191406 186.378906 73.191406 186.378906 C 73.191406 186.378906 82.875 180.519531 84.34375 177.296875 C 94.90625 149.476562 102.242188 152.988281 106.347656 143.617188 C 108.695312 138.050781 101.066406 126.042969 100.480469 119.894531 C 99.601562 113.449219 105.46875 98.21875 101.066406 93.828125 C 99.304688 92.070312 94.90625 91.484375 90.796875 92.070312 C 97.546875 83.574219 105.175781 75.960938 113.683594 69.519531 C 113.683594 73.324219 117.5 73.617188 120.433594 73.617188 C 114.859375 75.375 114.859375 81.820312 117.207031 82.992188 C 123.367188 79.183594 124.246094 84.160156 124.246094 84.160156 C 126.59375 104.078125 123.074219 101.734375 123.074219 101.734375 C 115.738281 103.492188 123.074219 118.722656 123.074219 118.722656 C 127.476562 123.40625 128.941406 117.84375 128.941406 117.84375 C 129.234375 108.472656 137.746094 105.835938 141.558594 102.613281 C 142.734375 101.734375 144.199219 99.390625 145.375 98.804688 C 147.722656 97.339844 152.121094 96.464844 154.761719 92.65625 C 159.457031 85.625 152.710938 85.332031 152.710938 82.699219 C 152.710938 81.820312 156.523438 81.234375 156.523438 81.234375 C 160.042969 80.355469 160.339844 75.375 160.339844 75.375 C 158.285156 65.417969 169.433594 59.851562 168.554688 58.679688 C 160.339844 47.84375 149.1875 56.339844 149.1875 56.339844 C 145.082031 57.214844 133.34375 61.609375 133.34375 61.609375 C 132.167969 59.558594 129.527344 59.558594 126.886719 60.4375 C 146.253906 48.722656 168.847656 42.28125 192.910156 42.28125 C 233.988281 42.28125 270.371094 61.609375 294.140625 91.484375 C 289.152344 89.140625 283.871094 86.796875 281.816406 85.332031 C 276.828125 81.820312 268.023438 69.226562 264.503906 71.859375 C 258.636719 76.546875 249.539062 89.433594 243.082031 93.535156 C 223.425781 106.128906 203.765625 90.605469 203.765625 90.605469 C 189.09375 89.726562 184.691406 111.105469 184.691406 111.105469 C 176.183594 110.8125 176.769531 118.722656 178.824219 121.066406 C 183.8125 126.335938 184.691406 121.066406 186.453125 121.945312 C 188.507812 123.117188 186.746094 125.457031 190.855469 129.851562 C 193.496094 132.78125 196.722656 121.652344 196.429688 118.429688 C 194.960938 102.320312 203.472656 105.835938 203.472656 105.835938 C 194.082031 118.722656 207.578125 118.722656 207.578125 118.722656 C 202.589844 118.722656 201.125 130.4375 201.125 130.4375 L 189.386719 132.78125 C 182.636719 131.609375 162.980469 145.667969 162.980469 145.667969 C 162.980469 145.667969 170.019531 149.183594 167.085938 155.039062 C 165.914062 157.675781 157.699219 155.332031 155.9375 157.675781 C 152.121094 162.65625 153.296875 174.371094 167.085938 169.097656 C 173.542969 166.753906 176.476562 151.816406 189.09375 152.988281 C 199.363281 153.867188 206.40625 169.976562 206.40625 169.976562 L 209.925781 161.777344 C 211.394531 176.128906 227.238281 170.855469 227.238281 170.855469 C 226.652344 176.417969 222.542969 185.5 220.785156 186.378906 C 215.796875 189.015625 206.699219 184.621094 206.699219 184.621094 C 206.699219 184.621094 204.351562 182.863281 203.179688 182.863281 C 202.296875 182.863281 199.949219 184.328125 199.949219 184.328125 C 199.949219 184.328125 199.65625 188.429688 198.777344 187.84375 C 189.679688 181.398438 185.277344 184.914062 182.933594 181.105469 C 182.34375 179.933594 185.867188 179.054688 183.519531 176.128906 C 180.292969 171.734375 152.121094 183.449219 152.121094 183.449219 C 131.289062 203.070312 140.972656 226.796875 152.121094 229.433594 C 159.457031 231.1875 175.890625 226.210938 181.757812 230.894531 C 186.453125 234.703125 189.679688 248.761719 187.625 254.621094 C 183.8125 266.628906 194.667969 278.929688 194.667969 278.929688 C 209.046875 285.957031 217.847656 263.699219 224.597656 257.839844 C 225.476562 257.253906 227.53125 256.667969 227.824219 255.792969 C 229.292969 252.570312 226.359375 245.246094 227.53125 242.027344 C 229.292969 238.21875 236.628906 234.117188 239.5625 231.1875 C 242.496094 228.554688 248.660156 219.765625 247.191406 217.128906 C 246.605469 216.25 239.269531 220.644531 236.921875 219.472656 C 230.464844 216.542969 214.328125 196.628906 221.664062 190.769531 C 221.957031 190.476562 226.066406 186.085938 227.824219 186.378906 C 234.28125 188.136719 238.390625 208.050781 241.617188 209.808594 C 246.898438 212.738281 260.6875 201.316406 260.6875 195.457031 C 260.6875 193.40625 254.234375 190.476562 254.234375 190.476562 C 244.550781 189.015625 247.777344 181.398438 247.777344 181.398438 C 251.886719 186.964844 257.167969 186.378906 257.167969 186.378906 C 262.15625 189.308594 269.492188 187.84375 269.492188 187.84375 L 275.066406 195.457031 L 280.347656 211.566406 C 283.574219 210.394531 284.164062 202.488281 284.164062 202.488281 C 284.164062 202.488281 290.617188 189.601562 294.726562 189.890625 C 299.128906 190.476562 301.769531 205.414062 303.234375 205.121094 C 306.757812 204.242188 304.996094 190.769531 304.996094 190.769531 C 304.996094 190.769531 311.449219 184.328125 312.039062 181.398438 C 314.386719 170.5625 309.984375 167.925781 310.863281 163.53125 C 311.746094 159.140625 316.734375 150.9375 316.144531 146.546875 C 313.503906 130.4375 311.449219 136.589844 311.15625 133.074219 C 310.863281 131.316406 311.746094 127.800781 312.332031 124.871094 C 318.199219 139.808594 321.722656 156.210938 321.722656 173.492188 C 321.722656 245.539062 263.625 304.117188 192.027344 304.117188 C 125.421875 304.117188 70.84375 254.035156 62.628906 189.890625 Z M 191.441406 327.546875 C 168.554688 327.546875 146.839844 322.566406 126.300781 312.902344 L 128.941406 305.582031 C 129.527344 304.117188 129.234375 302.652344 128.648438 301.1875 C 147.429688 310.558594 168.847656 315.832031 191.441406 315.832031 C 269.492188 315.832031 332.871094 251.984375 332.871094 173.492188 C 332.871094 109.644531 291.203125 55.753906 233.988281 37.59375 C 236.335938 37.59375 238.683594 36.421875 239.5625 34.078125 L 241.617188 29.6875 C 302.941406 51.066406 343.726562 108.765625 343.726562 174.371094 C 343.433594 258.71875 275.359375 327.546875 191.441406 327.546875 Z M 191.441406 327.546875 "/>
</g>
</g>
</svg>
