<?xml version="1.0" encoding="UTF-8"?>
<svg xmlns="http://www.w3.org/2000/svg" xmlns:xlink="http://www.w3.org/1999/xlink" width="404.88pt" height="404.99999pt" viewBox="0 0 404.88 404.99999" version="1.2">
<defs>
<clipPath id="clip1">
  <path d="M 0 0.0585938 L 404.761719 0.0585938 L 404.761719 404.9375 L 0 404.9375 Z M 0 0.0585938 "/>
</clipPath>
<clipPath id="clip2">
  <path d="M 14.867188 78 L 389.753906 78 L 389.753906 327 L 14.867188 327 Z M 14.867188 78 "/>
</clipPath>
</defs>
<g id="surface1">
<g clip-path="url(#clip1)" clip-rule="nonzero">
<path style=" stroke:none;fill-rule:nonzero;fill:rgb(100%,100%,100%);fill-opacity:1;" d="M 0 0.0585938 L 404.878906 0.0585938 L 404.878906 412.4375 L 0 412.4375 Z M 0 0.0585938 "/>
<path style=" stroke:none;fill-rule:nonzero;fill:rgb(100%,100%,100%);fill-opacity:1;" d="M 0 0.0585938 L 404.878906 0.0585938 L 404.878906 404.941406 L 0 404.941406 Z M 0 0.0585938 "/>
<path style=" stroke:none;fill-rule:nonzero;fill:rgb(100%,100%,100%);fill-opacity:1;" d="M 0 0.0585938 L 404.878906 0.0585938 L 404.878906 404.941406 L 0 404.941406 Z M 0 0.0585938 "/>
</g>
<g clip-path="url(#clip2)" clip-rule="nonzero">
<path style=" stroke:none;fill-rule:nonzero;fill:rgb(100%,54.899597%,0%);fill-opacity:1;" d="M 389.753906 162.570312 L 202.308594 78.597656 L 14.867188 162.570312 L 45.585938 176.359375 L 45.585938 223.359375 C 38.0625 225.242188 32.417969 232.132812 32.417969 240.90625 C 32.417969 247.175781 35.554688 252.1875 39.941406 255.320312 L 28.65625 300.445312 L 72.542969 300.445312 L 61.257812 255.949219 C 65.644531 252.816406 68.78125 247.175781 68.78125 241.535156 C 68.78125 233.386719 63.765625 226.496094 56.242188 224.613281 L 56.242188 182 L 79.4375 192.027344 L 79.4375 285.402344 L 142.753906 313.605469 C 162.1875 322.378906 182.25 326.136719 202.9375 326.136719 C 223.625 326.136719 244.3125 321.75 263.121094 312.976562 L 326.4375 284.777344 L 326.4375 190.773438 Z M 51.226562 258.457031 L 59.375 289.789062 L 41.824219 289.789062 L 49.972656 258.457031 C 49.972656 258.457031 50.597656 258.457031 50.597656 258.457031 C 49.972656 258.457031 50.597656 258.457031 51.226562 258.457031 C 50.597656 258.457031 50.597656 258.457031 51.226562 258.457031 Z M 58.121094 240.28125 C 58.121094 244.667969 54.988281 247.800781 50.597656 247.800781 C 50.597656 247.800781 50.597656 247.800781 49.972656 247.800781 C 45.585938 247.800781 42.449219 244.042969 42.449219 240.28125 C 42.449219 235.894531 46.210938 232.132812 50.597656 232.132812 C 54.988281 232.132812 58.121094 235.894531 58.121094 240.28125 Z M 39.941406 162.570312 L 202.308594 89.875 L 364.679688 162.570312 L 202.308594 235.269531 L 78.808594 180.121094 Z M 315.78125 195.785156 L 315.78125 277.257812 L 258.730469 302.949219 C 223 318.617188 182.25 318.617188 146.515625 302.949219 L 89.46875 277.257812 L 89.46875 195.785156 L 202.308594 246.546875 Z M 315.78125 195.785156 "/>
</g>
</g>
</svg>
