<?xml version="1.0" encoding="UTF-8"?>
<svg xmlns="http://www.w3.org/2000/svg" xmlns:xlink="http://www.w3.org/1999/xlink" width="404.88pt" height="404.99999pt" viewBox="0 0 404.88 404.99999" version="1.2">
<defs>
<clipPath id="clip1">
  <path d="M 51.648438 51.871094 L 353.058594 51.871094 L 353.058594 353.28125 L 51.648438 353.28125 Z M 51.648438 51.871094 "/>
</clipPath>
</defs>
<g id="surface1">
<path style=" stroke:none;fill-rule:nonzero;fill:rgb(99.21875%,98.429871%,93.328857%);fill-opacity:1;" d="M 53.628906 202.578125 C 53.628906 120.570312 120.34375 53.855469 202.351562 53.855469 C 284.359375 53.855469 351.074219 120.570312 351.074219 202.578125 C 351.074219 284.582031 284.359375 351.296875 202.351562 351.296875 C 120.34375 351.296875 53.628906 284.582031 53.628906 202.578125 Z M 53.628906 202.578125 "/>
<g clip-path="url(#clip1)" clip-rule="nonzero">
<path style=" stroke:none;fill-rule:nonzero;fill:rgb(99.21875%,98.429871%,93.328857%);fill-opacity:1;" d="M 349.09375 202.578125 C 349.09375 283.488281 283.265625 349.316406 202.351562 349.316406 C 121.441406 349.316406 55.613281 283.488281 55.613281 202.578125 C 55.613281 121.664062 121.441406 55.835938 202.351562 55.835938 C 283.265625 55.835938 349.09375 121.664062 349.09375 202.578125 M 353.058594 202.578125 C 353.058594 119.34375 285.585938 51.871094 202.351562 51.871094 C 119.121094 51.871094 51.648438 119.34375 51.648438 202.578125 C 51.648438 285.808594 119.121094 353.28125 202.351562 353.28125 C 285.585938 353.28125 353.058594 285.808594 353.058594 202.578125 Z M 353.058594 202.578125 "/>
</g>
<path style=" stroke:none;fill-rule:nonzero;fill:rgb(100%,54.899597%,0%);fill-opacity:1;" d="M 186.488281 202.578125 L 249.945312 139.121094 L 226.148438 115.324219 L 138.898438 202.578125 L 226.148438 289.828125 L 249.945312 266.03125 Z M 186.488281 202.578125 "/>
</g>
</svg>
