<?xml version="1.0" encoding="UTF-8"?>
<svg xmlns="http://www.w3.org/2000/svg" xmlns:xlink="http://www.w3.org/1999/xlink" width="404.88pt" height="404.99999pt" viewBox="0 0 404.88 404.99999" version="1.2">
<defs>
<clipPath id="clip1">
  <path d="M 27.675781 69.679688 L 377.074219 69.679688 L 377.074219 335.101562 L 27.675781 335.101562 Z M 27.675781 69.679688 "/>
</clipPath>
</defs>
<g id="surface1">
<g clip-path="url(#clip1)" clip-rule="nonzero">
<path style=" stroke:none;fill-rule:nonzero;fill:rgb(99.21875%,98.429871%,93.328857%);fill-opacity:1;" d="M 214.515625 200.941406 C 207.597656 207.070312 197.164062 207.070312 190.25 200.945312 L 71.453125 95.648438 L 333.308594 95.648438 Z M 260.855469 210.789062 L 243.164062 229.648438 L 328.007812 309.1875 L 75.792969 309.1875 L 156.324219 229.320312 L 138.109375 210.964844 L 53.554688 294.828125 L 53.554688 114.332031 L 173.085938 220.28125 C 181.164062 227.445312 191.570312 231.386719 202.382812 231.386719 C 213.195312 231.386719 223.597656 227.445312 231.675781 220.28125 L 351.214844 114.328125 L 351.214844 295.5 Z M 338.457031 69.800781 L 66.308594 69.800781 C 45.011719 69.800781 27.691406 87.117188 27.691406 108.402344 L 27.691406 296.4375 C 27.691406 317.722656 45.011719 335.039062 66.308594 335.039062 L 338.457031 335.039062 C 359.753906 335.039062 377.078125 317.722656 377.078125 296.4375 L 377.078125 108.402344 C 377.078125 87.117188 359.753906 69.800781 338.457031 69.800781 "/>
</g>
</g>
</svg>
