<?xml version="1.0" encoding="UTF-8"?>
<svg xmlns="http://www.w3.org/2000/svg" xmlns:xlink="http://www.w3.org/1999/xlink" width="404.88pt" height="404.99999pt" viewBox="0 0 404.88 404.99999" version="1.2">
<defs>
<clipPath id="clip1">
  <path d="M 13 49 L 260 49 L 260 350.695312 L 13 350.695312 Z M 13 49 "/>
</clipPath>
</defs>
<g id="surface1">
<g clip-path="url(#clip1)" clip-rule="nonzero">
<path style=" stroke:none;fill-rule:nonzero;fill:rgb(100%,100%,100%);fill-opacity:1;" d="M 167.984375 325.226562 C 141.101562 326.964844 114.796875 321.175781 91.671875 307.859375 C 89.070312 306.414062 85.890625 306.414062 83.289062 307.859375 L 34.148438 334.777344 L 59.007812 289.917969 C 60.742188 286.734375 60.453125 282.679688 57.851562 280.074219 C 35.882812 254.605469 24.320312 221.902344 25.476562 188.039062 C 28.367188 120.601562 83.578125 64.742188 151.507812 61.558594 C 153.820312 61.558594 156.132812 61.269531 158.445312 61.269531 C 177.523438 61.269531 196.3125 65.324219 213.367188 73.136719 C 217.703125 70.820312 222.039062 68.507812 226.664062 66.769531 C 203.828125 54.613281 177.523438 48.535156 150.929688 49.984375 C 77.21875 53.746094 17.09375 113.945312 13.914062 187.460938 C 12.46875 223.636719 24.609375 258.371094 47.734375 285.863281 L 18.828125 337.671875 C 16.804688 341.144531 17.382812 345.195312 20.273438 348.089844 C 22.007812 349.828125 24.03125 350.695312 26.34375 350.695312 C 27.789062 350.695312 29.234375 350.40625 30.679688 349.539062 L 87.335938 318.570312 C 111.90625 332.460938 140.234375 338.828125 168.5625 336.804688 C 203.828125 334.488281 235.914062 318.859375 259.90625 295.414062 C 254.992188 295.125 250.078125 294.257812 245.164062 293.101562 C 224.0625 311.335938 197.179688 323.199219 167.984375 325.226562 Z M 167.984375 325.226562 "/>
</g>
<path style=" stroke:none;fill-rule:nonzero;fill:rgb(100%,100%,100%);fill-opacity:1;" d="M 383.046875 269.367188 L 361.078125 228.847656 C 370.90625 210.613281 375.242188 190.355469 373.796875 169.226562 C 370.328125 117.417969 329.28125 74.875 278.695312 70.242188 C 248.632812 67.636719 218.859375 78.058594 197.179688 98.894531 C 174.632812 120.601562 162.78125 150.992188 164.515625 182.25 C 167.117188 237.242188 211.34375 281.8125 264.820312 284.128906 C 266.265625 284.128906 267.710938 284.128906 269.15625 284.128906 C 293.726562 284.128906 317.140625 275.445312 335.929688 259.527344 L 372.0625 280.074219 C 375.242188 281.8125 379 281.234375 381.3125 278.917969 C 384.203125 276.3125 384.78125 272.550781 383.046875 269.367188 Z M 339.398438 248.238281 C 336.507812 246.503906 332.75 247.082031 330.4375 249.109375 C 312.515625 265.027344 289.390625 273.417969 265.398438 272.261719 C 217.703125 270.523438 178.390625 230.875 175.789062 181.960938 C 174.632812 153.886719 185.039062 126.679688 205.273438 107.578125 C 222.617188 90.792969 245.742188 81.53125 269.445312 81.53125 C 272.046875 81.53125 274.9375 81.53125 277.539062 81.820312 C 322.632812 85.871094 359.054688 123.785156 362.234375 170.09375 C 363.679688 189.484375 359.34375 208.296875 349.804688 224.796875 C 348.359375 227.109375 348.359375 230.003906 349.804688 232.609375 L 366.570312 263.578125 Z M 339.398438 248.238281 "/>
</g>
</svg>
