<?xml version="1.0" encoding="UTF-8"?>
<svg xmlns="http://www.w3.org/2000/svg" xmlns:xlink="http://www.w3.org/1999/xlink" width="404.88pt" height="404.99999pt" viewBox="0 0 404.88 404.99999" version="1.2">
<defs>
<clipPath id="clip1">
  <path d="M 80 149 L 325 149 L 325 389.992188 L 80 389.992188 Z M 80 149 "/>
</clipPath>
<clipPath id="clip2">
  <path d="M 112 15.101562 L 293 15.101562 L 293 288 L 112 288 Z M 112 15.101562 "/>
</clipPath>
<clipPath id="clip3">
  <path d="M 56.738281 170 L 71 170 L 71 204 L 56.738281 204 Z M 56.738281 170 "/>
</clipPath>
<clipPath id="clip4">
  <path d="M 334 170 L 348.402344 170 L 348.402344 204 L 334 204 Z M 334 170 "/>
</clipPath>
</defs>
<g id="surface1">
<g clip-path="url(#clip1)" clip-rule="nonzero">
<path style=" stroke:none;fill-rule:nonzero;fill:rgb(100%,100%,100%);fill-opacity:1;" d="M 315.890625 149.929688 C 311.015625 149.929688 307.0625 153.878906 307.0625 158.753906 L 307.0625 199.535156 C 307.0625 257.152344 260.15625 304.035156 202.5 304.035156 C 144.84375 304.035156 97.933594 257.152344 97.933594 199.535156 L 97.933594 158.753906 C 97.933594 153.878906 93.984375 149.929688 89.109375 149.929688 C 84.234375 149.929688 80.28125 153.878906 80.28125 158.753906 L 80.28125 199.535156 C 80.28125 264.113281 130.699219 317.144531 194.261719 321.394531 L 194.261719 373.503906 L 142.878906 373.503906 L 142.878906 389.96875 L 261.617188 389.96875 L 261.617188 373.503906 L 210.738281 373.503906 L 210.738281 321.394531 C 274.304688 317.144531 324.714844 264.113281 324.714844 199.535156 L 324.714844 158.753906 C 324.714844 153.878906 320.765625 149.929688 315.890625 149.929688 "/>
</g>
<g clip-path="url(#clip2)" clip-rule="nonzero">
<path style=" stroke:none;fill-rule:nonzero;fill:rgb(100%,100%,100%);fill-opacity:1;" d="M 202.5 30.394531 C 240.851562 30.394531 272.5 59.609375 276.34375 96.933594 L 233.785156 96.933594 L 233.785156 112.226562 L 276.734375 112.226562 L 276.734375 130.125 L 233.785156 130.125 L 233.785156 145.414062 L 276.734375 145.414062 L 276.734375 163.304688 L 233.785156 163.304688 L 233.785156 178.597656 L 276.734375 178.597656 L 276.734375 197.929688 C 276.734375 199.09375 276.703125 200.253906 276.648438 201.40625 L 128.351562 201.40625 C 128.296875 200.253906 128.265625 199.09375 128.265625 197.929688 L 128.265625 178.597656 L 171.21875 178.597656 L 171.21875 163.304688 L 128.265625 163.304688 L 128.265625 145.414062 L 171.21875 145.414062 L 171.21875 130.125 L 128.265625 130.125 L 128.265625 112.226562 L 171.21875 112.226562 L 171.21875 96.933594 L 128.65625 96.933594 C 132.5 59.609375 164.152344 30.394531 202.5 30.394531 Z M 202.5 272.113281 C 166.792969 272.113281 136.902344 246.789062 129.847656 213.167969 L 275.152344 213.167969 C 268.097656 246.789062 238.207031 272.113281 202.5 272.113281 Z M 202.5 287.40625 C 251.871094 287.40625 292.035156 247.261719 292.035156 197.929688 L 292.035156 104.582031 C 292.035156 55.242188 251.871094 15.101562 202.5 15.101562 C 153.128906 15.101562 112.964844 55.242188 112.964844 104.582031 L 112.964844 197.929688 C 112.964844 247.261719 153.128906 287.40625 202.5 287.40625 "/>
</g>
<g clip-path="url(#clip3)" clip-rule="nonzero">
<path style=" stroke:none;fill-rule:nonzero;fill:rgb(100%,100%,100%);fill-opacity:1;" d="M 56.679688 203.199219 L 70.804688 203.199219 L 70.804688 170.953125 L 56.679688 170.953125 L 56.679688 203.199219 "/>
</g>
<g clip-path="url(#clip4)" clip-rule="nonzero">
<path style=" stroke:none;fill-rule:nonzero;fill:rgb(100%,100%,100%);fill-opacity:1;" d="M 334.195312 170.953125 L 334.195312 203.199219 L 348.320312 203.199219 L 348.320312 170.953125 L 334.195312 170.953125 "/>
</g>
</g>
</svg>
