<?xml version="1.0" encoding="UTF-8"?>
<svg xmlns="http://www.w3.org/2000/svg" xmlns:xlink="http://www.w3.org/1999/xlink" width="404.88pt" height="404.99999pt" viewBox="0 0 404.88 404.99999" version="1.2">
<defs>
<clipPath id="clip1">
  <path d="M 51.8125 51.871094 L 353.058594 51.871094 L 353.058594 353.28125 L 51.8125 353.28125 Z M 51.8125 51.871094 "/>
</clipPath>
</defs>
<g id="surface1">
<path style=" stroke:none;fill-rule:nonzero;fill:rgb(99.21875%,98.429871%,93.328857%);fill-opacity:1;" d="M 351.238281 202.578125 C 351.238281 120.570312 284.523438 53.855469 202.515625 53.855469 C 120.507812 53.855469 53.792969 120.570312 53.792969 202.578125 C 53.792969 284.582031 120.507812 351.296875 202.515625 351.296875 C 284.523438 351.296875 351.238281 284.582031 351.238281 202.578125 Z M 351.238281 202.578125 "/>
<g clip-path="url(#clip1)" clip-rule="nonzero">
<path style=" stroke:none;fill-rule:nonzero;fill:rgb(99.21875%,98.429871%,93.328857%);fill-opacity:1;" d="M 55.777344 202.578125 C 55.777344 283.488281 121.605469 349.316406 202.515625 349.316406 C 283.429688 349.316406 349.253906 283.488281 349.253906 202.578125 C 349.253906 121.664062 283.429688 55.835938 202.515625 55.835938 C 121.605469 55.835938 55.777344 121.664062 55.777344 202.578125 M 51.8125 202.578125 C 51.8125 119.34375 119.285156 51.871094 202.515625 51.871094 C 285.75 51.871094 353.222656 119.34375 353.222656 202.578125 C 353.222656 285.808594 285.75 353.28125 202.515625 353.28125 C 119.285156 353.28125 51.8125 285.808594 51.8125 202.578125 Z M 51.8125 202.578125 "/>
</g>
<path style=" stroke:none;fill-rule:nonzero;fill:rgb(100%,54.899597%,0%);fill-opacity:1;" d="M 218.378906 202.578125 L 154.925781 139.121094 L 178.722656 115.324219 L 265.972656 202.578125 L 178.722656 289.828125 L 154.925781 266.03125 Z M 218.378906 202.578125 "/>
</g>
</svg>
